/* XPM */
static char *f2cda8dc8aaa4b1bac021cd186d5ad13[] = {
/* columns rows colors chars-per-pixel */
"64 64 63 1 ",
"  c #010101",
". c #060606",
"X c #090909",
"o c gray6",
"O c #131313",
"+ c #161616",
"@ c #181818",
"# c gray11",
"$ c gray13",
"% c #272727",
"& c gray16",
"* c #2C2C2C",
"= c #323232",
"- c #353535",
"; c #393939",
": c #3C3C3C",
"> c #414141",
", c gray28",
"< c #484848",
"1 c #4C4C4C",
"2 c #535353",
"3 c #555555",
"4 c #585858",
"5 c gray36",
"6 c gray39",
"7 c #676767",
"8 c gray42",
"9 c #6C6C6C",
"0 c #727272",
"q c #767676",
"w c gray47",
"e c gray50",
"r c #808080",
"t c gray53",
"y c #888888",
"u c #8E8E8E",
"i c #939393",
"p c gray59",
"a c #989898",
"s c gray62",
"d c #A0A0A0",
"f c #A4A4A4",
"g c gray67",
"h c #AEAEAE",
"j c #B2B2B2",
"k c #B7B7B7",
"l c gray72",
"z c #C3C3C3",
"x c gray77",
"c c #CBCBCB",
"v c gray80",
"b c LightGray",
"n c #D5D5D5",
"m c gray86",
"M c gainsboro",
"N c #E2E2E2",
"B c #E4E4E4",
"V c gray91",
"C c gray93",
"Z c gray94",
"A c gray96",
"S c #FBFBFB",
"D c gray100",
/* pixels */
"DDDDDDDDDDDDDDDDDDDDDDDDDDDDDDDDDDDDDDDDDDDDDDDDDDDDDDDDDDDDDDDD",
"DDDDDDDDDDDDDDDDDDDDDDDDDDDDDDDDDDDDDDDDDDDDDDDDDDDDDDDDDDDDDDDD",
"DDDDDDDDDDDDDDDDDDDDDDDDDDDDDDDDDDDDDDDDDDDDDDDDDDDDDDDDDDDDDDDD",
"DDfo. :DDDDDDDDp>+o=iADDDDVw&X+,lDDDDDDDDDDDDDDDDDDDDDDDDDDDDDDD",
"DDh*=o BDDDDDS, %88% 1DDDV% <e8@ pDDDDDDDDDDDDDDDDDDDDDDDDDDDDDD",
"DDDDD0 bDDDDDa 2SDDS1 kDD8 aDDDZ%.SDDDDDDDDDDDDDDDDDDDDDDDDDDDDD",
"DDDDDq bDDDDD: NDDDDl rDDy4DDDDDw vDDDDDDDDDDDDDDDDDDDDDDDDDDDDD",
"DDDDDq bDDDDDueDDDDDh yDDDDDDDDD9 mDDDDDDDDDDDDDDDDDDDDDDDDDDDDD",
"DDDDDq bDDDDDDDDDDDA: zDDDDDDDDno*DDDDDDDDDDDDDDDDDDDDDDDDDDDDDD",
"DDDDDq bDDDDDDDDDDV; 3DDDDDSq81.=mDDDDDDDDDDDDDDDDDDDDDDDDDDDDDD",
"DDDDDq bDDDDDDDDDz$ 4SDDDDDBX  oqVDDDDDDDDDDDDDDDDDDDDDDDDDDDDDD",
"DDDDDw bDDDDDDDDy OdDDDDDDDDACnyX#CDDDDDDDDDDDDDDDDDDDDDDDDDDDDD",
"DDDDDq bDDDDDDS6 =BDDDDDDDDDDDDDa yDDDDDDDDDDDDDDDDDDDDDDDDDDDDD",
"DDDDDq bDDDDDDe 2ADDDDDDDDDDDDDDN 5DDDDDDDDDDDDDDDDDDDDDDDDDDDDD",
"DDDDDq bDDDDDc <DDDDDDDDM#aDDDDDc 9DDDDDDDDDDDDDDDDDDDDDDDDDDDDD",
"DDDDDq bDDDDD< mDDDDDDDDCoOnDDDA> jDDDDDDDDDDDDDDDDDDDDDDDDDDDDD",
"DDDDDq bDDDDS.o9099099fDDf.X4w7@ 4DDDDDDDDDDDDDDDDDDDDDDDDDDDDDD",
"DDDDDd@CDDDDD;        ,DDDc4$X@>gDDDDDDDDDDDDDDDDDDDDDDDDDDDDDDD",
"DDDDDDDDDDDDDDDDDDDDDDDDDDDDDDDDDDDDDDDDDDDDDDDDDDDDDDDDDDDDDDDD",
"DDDDDDDDDDDDDDDDDDDDDDDDDDDDDDDDDDDDDDDV*    O,dDDDDDrOvDDDDDDDD",
"DDDDDDDDDDDDDDDDDDDDDDDDDDDDDDDDDDDDDDDa ;907:o >ZDDDp gDDDDDDDD",
"DDDDDDDDDDDDDDDDDDDDDDDDDDDDDDDDDDDDDDDy rDDDDC< 4DDDa gDDDDDDDD",
"DDDDDDx#2DDDDD4      @DDDDDn4+X&tDDDDDDy zDDDDDD& bDDa gDDDDDDDD",
"DDDDDV+.oDDDDC -09090yDDDDcXX6q- 3DDDDDy rDDDDDDd wDDp gDDDDDDDD",
"DDDDD<@4oDDDDb aDDDDDDDDDD&OnDDD: lDDDDy rDDDDDDN 4DDp gDDDDDDDD",
"DDDDi g5oDDDDr jDDDDDDDDDz uDDDDM>vDDDDu rDDDDDDD.-DDp gDDDDDDDD",
"DDDnX3D1oDDDDd vDDDDDDDDD7 VDDDDDDDDDDDy rDDDDDDD+$DDp gDDDDDDDD",
"DDS*@CD1oDDDDy r<@O>kDDDD:*DCgazADDDDDDu rDDDDDDA :DDa gDDDDDDDD",
"DD0 kDD<oDDDD0 .=07O uDDD$1fo   #lDDDDDy rDDDDDDM 6DDp gDDDDDDDD",
"Dl 9DDD1oDDDD6 9DDDB#.NDDX=.eMCh#.mDDDDu rDDDDDDt tDDp gDDDDDDDD",
"C+&ADDD<oDDDDnaDDDDDp sDDo rDDDDv 6DDDDy rDDDDDZ+ MDDp hDDDDDDDD",
"e 7tttt%.yuCDDDDDDDDx qDD* BDDDDD%=DDDDu rDDDDN= 0DDDp fDDDDDDDD",
"s         .cDDDDDDDDr rDD< ADDDDD=$DDDDa ;098;. 2ADDDf &666666eD",
"DDDDDDD1oDDDDt9DDDDDr hDDi rDDDDZo1DDDDB*    O,gDDDDDC=       @S",
"DDDDDDD<oDDDD, sDDDvo#ADDAO*VDDD8 fDDDDDDDDDDDDDDDDDDDDDDDDDDDDD",
"DDDDDDD1oDDDDm+ >02.XkDDDDf +60= 2DDDDDDDDDDDDDDDDDDDDDDDDDDDDDD",
"DDDDDDD0;DDDDDB8$.$3nDDDDDDz3$o;pDDDDDDDDDDDDDDDDDDDDDDDDDDDDDDD",
"DDDDDDDDDDDDDDDDDDDDDDDDDDDDDDDDDDDDDDDDDDDDDDDDDDDDDDDDDDDDDDDD",
"DDDDDDDDDDDDDDDDDDDDDDDDDDDDDDDDDDDDDDDDDDDDDDDDDDDDDDDDDDDDDDDD",
"DDDDDDDDDDDDDDDDDDDDDDDDDDDDDDDDDDDDDDDDDDDDDDDDDDDDDDDDDDDDDDDD",
"DDDDDDDDDDDDDDDDDDDDDDDDDDDDDDDDDDDDDDDDDDDDDDDDDDDDDDDDDDDDDDDD",
"Bo        8DDDCe=o+:fDDDDDZq=X*7mDDDDDDDDDDDDDDDDDDDDDDDDDDDDDDD",
"A0666666> 3DDZ& >w0% 7DDDB# <w4XOvDDDDDDDDDDDDDDDDDDDDDDDDDDDDDD",
"DDDDDDDD,.nDDt iDDDS, cDD4 gDDDno>DDDDDDDDDDDDDDDDDDDDDDDDDDDDDD",
"DDDDDDDk 0DDD1.SDDDDl uDS.>DDDDDt cDDDDDDDDDDDDDDDDDDDDDDDDDDDDD",
"DDDDDDS&+ZDDD3.SDDDDk aDm qDDDDDr tDDDDDDDDDDDDDDDDDDDDDDDDDDDDD",
"DDDDDDj tDDDDd uDDDS<.NDV 7DDDDDh 7DDDDDDDDDDDDDDDDDDDDDDDDDDDDD",
"DDDDDD;XCDDDDD0.>w9%OfDDD#+ZDDDD< ,DDDDDDDDDDDDDDDDDDDDDDDDDDDDD",
"DDDDDc 7DDDDDDh-    3cDDDd ;xAb4@+<DDDDDDDDDDDDDDDDDDDDDDDDDDDDD",
"DDDDD9 zDDDDDy <xZBh%.rDDDuX   #cO6DDDDDDDDDDDDDDDDDDDDDDDDDDDDD",
"DDDDS++DDDDDC.;SDDDDMX;DDDDBjpjAA qDDDDDDDDDDDDDDDDDDDDDDDDDDDDD",
"DDDDl 8DDDDDr rDDDDDD;XDDDDDDDDDk sDDDDDDDDDDDDDDDDDDDDDDDDDDDDD",
"DDDD0 jDDDDDv 9DDDDDD$@DDkqDDDDD6.CDDDDDDDDDDDDDDDDDDDDDDDDDDDDD",
"DDDD* CDDDDDSOovDDDDi 3DD5 yDDDj 4DDDDDDDDDDDDDDDDDDDDDDDDDDDDDD",
"DDDC *DDDDDDDk  1q9- @BDDmO 2w5.+NDDDDDDDDDDDDDDDDDDDDDDDDDDDDDD",
"DDDN+yDDDDDDDDn5&X+=eCDDDDm5#.@7BDDDDDDDDDDDDDDDDDDDDDDDDDDDDDDD",
"DDDDDDDDDDDDDDDDDDDDDDDDDDDDDDDDDDDDDDDDDDDDDDDDDDDDDDDDDDDDDDDD",
"DDDDDDDDDDDDDDDDDDDDDDDDDDDDDDDDDDDDDDDDDDDDDDDDDDDDDDDDDDDDDDDD",
"DDDDDDDDDDDDDDDDDDDDDDDDDDDDDDDDDDDDDDDDDDDDDDDDDDDDDDDDDDDDDDDD",
"DDDDDDDDDDDDDDDDDDDDDDDDDDDDDDDDDDDDDDDDDDDDDDDDDDDDDDDDDDDDDDDD",
"DDDDDDDDDDDDDDDDDDDDDDDDDDDDDDDDDDDDDDDDDDDDDDDDDDDDDDDDDDDDDDDD",
"DDDDDDDDDDDDDDDDDDDDDDDDDDDDDDDDDDDDDDDDDDDDDDDDDDDDDDDDDDDDDDDD",
"DDDDDDDDDDDDDDDDDDDDDDDDDDDDDDDDDDDDDDDDDDDDDDDDDDDDDDDDDDDDDDDD",
"DDDDDDDDDDDDDDDDDDDDDDDDDDDDDDDDDDDDDDDDDDDDDDDDDDDDDDDDDDDDDDDD"
};
